<svg width="28" height="28" fill="none" xmlns="http://www.w3.org/2000/svg"><path fill-rule="evenodd" clip-rule="evenodd" d="M13.848 1.505C6.883 1.505 1.218 7.11 1.218 14c0 6.89 5.665 12.495 12.63 12.495 6.964 0 12.632-5.605 12.632-12.495 0-6.89-5.668-12.495-12.632-12.495zm0 26.194C6.212 27.699 0 21.553 0 14S6.212.301 13.848.301C21.484.301 27.697 6.447 27.697 14s-6.212 13.699-13.85 13.699z" fill="#007397"/><path fill-rule="evenodd" clip-rule="evenodd" d="M13.848 1.505C9.96 1.505 6.798 7.11 6.798 14c0 6.89 3.163 12.495 7.05 12.495 3.886 0 7.047-5.605 7.047-12.495 0-6.89-3.161-12.495-7.047-12.495m0 26.194c-4.56 0-8.267-6.146-8.267-13.699S9.289.301 13.848.301c4.558 0 8.265 6.146 8.265 13.699s-3.707 13.699-8.265 13.699z" fill="#007397"/><path fill-rule="evenodd" clip-rule="evenodd" d="M14.456 1.52v24.96C21.14 26.166 26.48 20.688 26.48 14S21.14 1.835 14.456 1.52zm-.608 26.179a.605.605 0 01-.609-.603V.903c0-.332.273-.602.609-.602C21.484.3 27.697 6.446 27.697 14c0 7.553-6.213 13.699-13.85 13.699z" fill="#007397"/><path fill-rule="evenodd" clip-rule="evenodd" d="M1.897 18.014h23.9c.452-1.31.683-2.66.683-4.014 0-1.355-.23-2.704-.685-4.015H1.9A12.238 12.238 0 001.217 14c0 1.356.228 2.705.68 4.014zm24.327 1.204H1.468a.608.608 0 01-.57-.39A13.527 13.527 0 010 14c0-1.64.303-3.265.902-4.83a.608.608 0 01.57-.39h24.752a.61.61 0 01.57.39c.598 1.57.903 3.196.903 4.83 0 1.635-.305 3.26-.903 4.83a.61.61 0 01-.57.388z" fill="#007397"/></svg>