<svg width="172" height="20" fill="none" xmlns="http://www.w3.org/2000/svg"><path fill-rule="evenodd" clip-rule="evenodd" d="M13.816.627C12.656.209 11.306 0 9.766 0H0v20h10.236c1.558 0 2.92-.227 4.083-.683 1.165-.454 2.07-1.109 2.714-1.963.645-.854.967-1.843.967-2.967 0-1.263-.35-2.354-1.048-3.273-.698-.919-1.625-1.513-2.78-1.783.994-.306 1.784-.85 2.37-1.629a4.29 4.29 0 00.88-2.646c0-1.012-.31-1.9-.933-2.66-.623-.762-1.514-1.351-2.673-1.77zM9.714 8H7V6h2.714c.39 0 .7.09.935.27.234.18.351.416.351.71a.899.899 0 01-.351.74c-.234.187-.546.28-.935.28zM5 15h3.668c.707 0 1.273-.146 1.697-.438.423-.293.635-.672.635-1.137 0-.43-.214-.774-.643-1.035-.43-.26-.992-.39-1.69-.39H5v3zm35.842.914c.772-1.306 1.158-2.819 1.158-4.54V0h-6.55v11.374c0 .97-.268 1.746-.806 2.328-.538.581-1.22.872-2.047.872a2.92 2.92 0 01-2.158-.9c-.593-.6-.89-1.366-.89-2.3V0H23v11.374c0 1.721.395 3.234 1.186 4.54.79 1.304 1.91 2.312 3.357 3.021 1.448.71 3.123 1.065 5.026 1.065 1.903 0 3.564-.355 4.984-1.065s2.517-1.717 3.289-3.021zM57.567 0c1.511 0 3.018.209 4.52.626 1.502.417 2.806.98 3.913 1.687L63.68 7.21a24.918 24.918 0 00-3.556-1.592c-1.282-.463-2.319-.694-3.11-.694-.792 0-1.188.272-1.188.817 0 .408.25.727.749.959.5.231 1.289.487 2.368.768 1.403.372 2.562.753 3.474 1.143.914.39 1.714.998 2.402 1.823.688.826 1.033 1.928 1.033 3.306 0 1.397-.362 2.563-1.087 3.497-.724.934-1.704 1.628-2.941 2.082-1.237.453-2.611.68-4.122.68-1.71 0-3.434-.272-5.175-.816-1.74-.544-3.25-1.311-4.527-2.3l2.388-4.843c.98.816 2.206 1.526 3.677 2.13 1.471.602 2.701.904 3.69.904 1.035 0 1.552-.336 1.552-1.007 0-.426-.254-.755-.762-.986-.508-.232-1.325-.488-2.449-.77-1.367-.335-2.51-.688-3.427-1.06a6.1 6.1 0 01-2.382-1.742c-.67-.789-1.005-1.841-1.005-3.156 0-1.28.34-2.397 1.019-3.354.679-.957 1.646-1.696 2.9-2.218C54.457.261 55.912 0 57.568 0zM71 0v20h7V0h-7zm26.593 20L89.897 9.791V20H84V0h5.42l7.723 10.279V0H103v20h-5.407zm18.97-12.52V5.027h10.189V0H110v20h17v-5.014h-10.437v-2.493h9.251V7.479h-9.251zM140.567 0c1.511 0 3.018.209 4.52.626 1.502.417 2.807.98 3.913 1.687l-2.321 4.898a24.88 24.88 0 00-3.555-1.592c-1.282-.463-2.319-.694-3.111-.694-.791 0-1.187.272-1.187.817 0 .408.25.727.749.959.499.231 1.289.487 2.368.768 1.403.372 2.561.753 3.475 1.143.913.39 1.713.998 2.401 1.823.688.826 1.033 1.928 1.033 3.306 0 1.397-.362 2.563-1.087 3.497-.724.934-1.704 1.628-2.941 2.082-1.237.453-2.611.68-4.122.68-1.71 0-3.434-.272-5.175-.816-1.741-.544-3.25-1.311-4.527-2.3l2.388-4.843c.981.816 2.206 1.526 3.677 2.13 1.471.602 2.701.904 3.691.904 1.034 0 1.551-.336 1.551-1.007 0-.426-.254-.755-.762-.986-.508-.232-1.325-.488-2.449-.77-1.367-.335-2.51-.688-3.427-1.06a6.097 6.097 0 01-2.382-1.742c-.67-.789-1.005-1.841-1.005-3.156 0-1.28.339-2.397 1.019-3.354.679-.957 1.646-1.696 2.901-2.218 1.255-.521 2.71-.782 4.365-.782zm27.52.626a16.82 16.82 0 00-4.52-.626c-1.655 0-3.11.26-4.365.782-1.255.522-2.222 1.261-2.901 2.218-.68.957-1.019 2.075-1.019 3.354 0 1.315.335 2.367 1.005 3.156a6.09 6.09 0 002.382 1.742c.917.372 2.06.725 3.427 1.06 1.124.282 1.941.538 2.449.77.508.23.762.56.762.986 0 .671-.517 1.007-1.551 1.007-.99 0-2.22-.302-3.691-.905-1.471-.603-2.696-1.313-3.677-2.13L154 16.885c1.277.989 2.786 1.756 4.527 2.3 1.741.544 3.465.816 5.175.816 1.511 0 2.885-.227 4.122-.68 1.237-.454 2.217-1.148 2.941-2.082.725-.934 1.087-2.1 1.087-3.496 0-1.38-.345-2.481-1.033-3.307-.688-.825-1.488-1.433-2.401-1.823-.914-.39-2.072-.77-3.475-1.143-1.079-.28-1.869-.537-2.368-.768-.499-.232-.749-.551-.749-.96 0-.544.396-.816 1.187-.816.792 0 1.829.231 3.111.694a24.88 24.88 0 013.555 1.592L172 2.313c-1.106-.708-2.411-1.27-3.913-1.687z" fill="#007397"/></svg>